<mxfile host="app.diagrams.net" modified="2022-09-13T06:30:16.632Z" agent="5.0 (Windows NT 10.0; Win64; x64) AppleWebKit/537.36 (KHTML, like Gecko) Chrome/95.0.4638.69 Safari/537.36" etag="X6FAK_VJXe0K4EJq0pou" version="20.3.0" type="github">
  <diagram id="5NYjcBuqYWdd95Rv4I4S" name="第 1 页">
    <mxGraphModel dx="1422" dy="762" grid="0" gridSize="10" guides="1" tooltips="1" connect="1" arrows="1" fold="1" page="1" pageScale="1" pageWidth="827" pageHeight="1169" math="0" shadow="0">
      <root>
        <mxCell id="0" />
        <mxCell id="1" parent="0" />
        <mxCell id="6h-oQQBUq5GWEP7Q3OU--1" value="&lt;font style=&quot;font-size: 14px;&quot; color=&quot;#000000&quot;&gt;ReportingEventExecutor.run(String... args)&lt;/font&gt;" style="rounded=0;whiteSpace=wrap;html=1;shadow=1;sketch=1;fillColor=#1ba1e2;fontColor=#ffffff;strokeColor=#006EAF;" vertex="1" parent="1">
          <mxGeometry x="125" y="84" width="366" height="51" as="geometry" />
        </mxCell>
        <mxCell id="6h-oQQBUq5GWEP7Q3OU--2" value="&lt;font style=&quot;font-size: 14px;&quot; color=&quot;#000000&quot;&gt;runTimeGatherTask()&lt;br&gt;定时线程池执行此任务&lt;br&gt;第一次执行延迟时间10000,间隔执行时间5000&lt;/font&gt;" style="rounded=0;whiteSpace=wrap;html=1;shadow=1;sketch=1;fillColor=#1ba1e2;fontColor=#ffffff;strokeColor=#006EAF;" vertex="1" parent="1">
          <mxGeometry x="125" y="207" width="366" height="51" as="geometry" />
        </mxCell>
      </root>
    </mxGraphModel>
  </diagram>
</mxfile>
